<?xml version="1.0" encoding="utf-8"?>
<!-- Generator: Adobe Illustrator 22.1.0, SVG Export Plug-In . SVG Version: 6.00 Build 0)  -->
<svg version="1.1" id="Слой_1" xmlns="http://www.w3.org/2000/svg" xmlns:xlink="http://www.w3.org/1999/xlink" x="0px" y="0px"
	 viewBox="0 0 677.5 116" style="enable-background:new 0 0 677.5 116;" xml:space="preserve">
<style type="text/css">
	.st0{fill:#231F20;}
</style>
<g>
	<path class="st0" d="M-25.7-0.2C-16.1,24-3.6,47,11.4,68.2c6.5,9.2,15,18.9,26.3,19.5c6.5,0.3,12.7-2.5,18.2-6
		c12-7.7,21.7-18.7,34.2-25.6s29.8-8.7,39.7,1.7c3.8,4,6,9.3,9.7,13.4c6.9,7.7,18.4,10.1,28.4,7.9c10.1-2.2,18.9-8.4,26.2-15.6
		c7.6-7.5,14.9-16.7,25.4-18.3c13.4-2.1,25.2,9.3,31.9,21.1c6.7,11.8,11.3,25.5,21.8,34.1c21.5,17.6,68.9,14.6,80.4-13.7
		c1.3-3.1,2.1-6.3,3.2-9.4c3.3-9.7,9-18.3,14.6-26.9c11.6-17.7,28.2-14.7,39.7,2.6c5.2,7.9,9,17.1,16.3,23
		c9.4,7.6,22.4,8.2,34.5,8.4c7.9,0.2,16.2,0.2,23.1-3.7c17.5-9.9,18.9-40.9,38.8-43.5c9.3-1.2,17.8,5.2,24,12.2
		c6.2,7,11.4,15.2,19.5,19.9c8.1,4.7,20.4,4,24.7-4.3c2.2-4.3,2.2-10.1,6.3-12.7c4.4-2.7,10.3,0.8,13,5.2c2.7,4.4,3.8,9.8,7.2,13.8
		c7.1,8.5,21.4,6.8,29.6-0.6c8.2-7.3,11.9-18.4,15.3-28.9c3.1-9.7,6.2-20.1,3.5-29.9c-2.6-9.2-9.9-16.2-17.4-22
		c-19.1-14.8-41.8-25.1-65.5-29.7c-19.5-3.8-39.5-3.8-59.3-3.8c-65.6,0-131.2,0.1-196.6,4.8c-54.5,3.9-108.8,11.1-163.4,12.8
		c-61.1,1.9-122.4-3.2-183.3,1.8c-6.5,0.5-13.2,1.3-18.7,4.8s-9.3,10.5-7,16.6c2.3,6.1,12.3,8.1,15.4,2.4"/>
	<g>
		<path class="st0" d="M-28.1,0.5c5.9,14.8,12.8,29.2,20.7,43c7.3,12.7,15.1,26.6,25.6,36.9c9.6,9.5,21.6,12.3,33.9,6.2
			C66,79.9,76.1,67.5,89.1,59.6c11-6.7,28-10.6,38.4-0.5c5.2,5.1,7.6,12.3,13.4,16.9c4.6,3.6,10.2,5.6,15.9,6.2
			c13.9,1.5,26.7-5.6,36.7-14.6c10.4-9.5,21.4-25.4,37.5-18.3c13.9,6.1,19.7,21.2,26.3,33.7c5.5,10.5,12.5,19.8,23.5,25
			c17.7,8.3,41,8.1,58.1-1.6c8.5-4.8,14.8-12.1,18.1-21.3c2.8-8,5.5-15.4,9.8-22.7c3.9-6.5,8-14.6,14.6-18.8
			c13.7-8.7,25.2,6.3,31.3,16.8c3.4,5.8,6.7,11.9,11.8,16.4c5,4.5,11.3,7.1,17.8,8.5c6.7,1.4,13.7,1.6,20.5,1.7
			c6.9,0.1,14,0.1,20.4-2.6c9.6-4,15-13,19.7-21.8c4.3-8.1,8.9-19.3,18.4-22.2c15.5-4.8,26,13.4,34.7,22.8
			c7.5,8.2,18.6,14.7,30,10.2c4.7-1.9,7.7-5.4,9.3-10.1c1.1-3.2,1.6-7.9,5.2-9c4.3-1.3,7.9,3.4,9.6,6.7c2.8,5.5,4.4,11.5,9.8,15.3
			c4.4,3,9.9,3.8,15.1,3.1c12.9-1.7,21-12,25.9-23.4c5.4-12.7,11.7-28.8,8.7-42.8c-2.9-13.5-15-22.8-25.8-30.3
			c-25.7-17.8-55.6-26.4-86.6-28.2c-17.5-1-35-0.6-52.5-0.6c-18.2,0-36.4,0.1-54.7,0.3c-35.8,0.4-71.5,1.3-107.2,3.5
			C271.4-37.8,200.7-27.8,129-28c-35.5-0.1-71-1.4-106.5-0.6c-16.7,0.4-34.5,0-50.9,3.3c-10.3,2-23.3,11.4-18.4,23.6
			c3.2,8,15,10,19.9,2.7c1.8-2.7-2.5-5.2-4.3-2.5C-32.9,1-36.3,1-38.9-0.3c-3.7-1.8-4.4-6.1-3.2-9.8c2.7-8,11.8-10.3,19.2-11.2
			c16.3-2,32.9-2.2,49.3-2.5c33.5-0.6,67,0.6,100.6,0.7c67.3,0.3,133.8-8.3,200.9-13.2c67.3-4.9,134.9-4.9,202.4-4.8
			c31.9,0,63.1,2.5,92.1,17c12.5,6.3,25.9,14.2,35.2,24.9c11.7,13.6,6.9,29.5,1.8,44.8c-4.3,12.7-11.3,27.9-26.7,28.7
			c-7.7,0.4-12.7-3.6-15.7-10.4c-2.3-5.1-4.2-10.4-9.3-13.4c-3.9-2.3-8.8-2.6-12.3,0.6c-4.1,3.8-3.4,10-6.8,14.1
			c-3.9,4.8-11.3,5-16.8,3.2c-6.4-2.2-11.1-7.6-15.3-12.6c-7.7-9.2-15.9-20.4-28.9-21.4c-9.1-0.7-16.2,4.7-21.2,11.8
			c-5.5,7.9-8.8,17.2-14.7,24.8c-8.9,11.5-22.8,11-36.1,10.4c-7.3-0.3-15-1.1-21.7-4.5c-6.6-3.3-10.8-9.1-14.5-15.3
			c-5.9-9.8-11.8-21.1-23.4-24.9c-10.1-3.3-19.3,2.1-25.3,10.1c-4.6,6.2-8.7,13-12.2,19.8c-3.2,6.3-4.7,13.1-7.5,19.5
			c-8.2,18.7-32.2,24.1-50.7,21.9c-9.7-1.2-19.8-4.5-27.1-11.3c-10.1-9.4-14-23.2-21.2-34.6c-6.1-9.6-15.5-18.8-27.4-19.9
			c-12.8-1.1-21.9,8.7-30.2,17c-10,10.1-23,19.6-38.1,17.5c-7.9-1.1-13.9-5.2-18.3-11.8c-3.2-4.9-6.2-9.8-11.3-13.1
			c-9.4-5.9-21.8-5-31.7-1.2C82.5,55.9,72.9,65.8,62.5,74c-6,4.7-12.9,9.8-20.6,11c-7.5,1.2-14.2-2.5-19.5-7.6
			C11.8,67.4,4.2,53.5-3,41c-7.7-13.4-14.5-27.4-20.2-41.8C-24.4-3.8-29.3-2.5-28.1,0.5L-28.1,0.5z"/>
	</g>
</g>
</svg>
